<svg xmlns="http://www.w3.org/2000/svg" viewBox="0 0 1367.73 768"><defs><style>.cls-1,.cls-13,.cls-19,.cls-8{fill:#2e3192;}.cls-2,.cls-5{fill:#f499c1;}.cls-3{fill:#da1c5c;}.cls-10,.cls-12,.cls-13,.cls-14,.cls-16,.cls-17,.cls-3,.cls-5,.cls-6,.cls-7,.cls-8,.cls-9{stroke:#2e3192;}.cls-10,.cls-12,.cls-13,.cls-14,.cls-16,.cls-17,.cls-18,.cls-19,.cls-3,.cls-5,.cls-6,.cls-7,.cls-8,.cls-9{stroke-miterlimit:10;}.cls-17,.cls-4{fill:#532e7c;}.cls-10,.cls-6,.cls-7,.cls-9{fill:none;}.cls-10,.cls-7,.cls-8,.cls-9{stroke-linecap:round;}.cls-7,.cls-8{stroke-width:2px;}.cls-9{stroke-width:0.75px;}.cls-11,.cls-12{fill:#d676a9;}.cls-14{fill:#edad3a;}.cls-15,.cls-16{fill:#e485b6;}.cls-18{fill:#1b75bc;}.cls-18,.cls-19{stroke:#2b3990;}</style></defs><title>BG</title><g id="Layer_3" data-name="Layer 3"><path class="cls-1" d="M552.4,159.17s6.11,24.44-2.61,38.7,4.69,29.89,4.69,29.89l82.39,1.18s15.88-9.17,12.53-24.34-14-21-13.27-31.8S552.4,159.17,552.4,159.17Z"/></g><g id="Layer_2" data-name="Layer 2"><polygon class="cls-2" points="109.8 193.6 93.16 216.58 97.91 230.98 149.57 230.98 156.5 210.64 145.56 195.48 109.8 193.6"/><path class="cls-3" d="M110.56,205.85h23.21s3.08,14.8,17.95,11.1-6.31,13.5-6.31,13.5H99.63l-3.85-12.3A16.54,16.54,0,0,0,110.56,205.85Z"/><path class="cls-4" d="M85,185.43l5.39,28.82L99.5,217s13.44-3.55,11.06-17C110.56,199.92,88.84,181.12,85,185.43Z"/><path class="cls-4" d="M157.93,181.18l-24.16,13.16.41,12.08s7.36,16.14,18.71,10.17C152.89,216.59,163,185.08,157.93,181.18Z"/><path class="cls-1" d="M110.56,199.92s11,8.86,15.73,7.55,7.48-7.55,7.48-7.55"/><path class="cls-5" d="M167,147.36c0,26-19.26,54.25-45.31,54.25S77.9,175.08,77.9,149s17.72-41.74,43.77-41.74S167,121.31,167,147.36Z"/><path class="cls-6" d="M110.53,199.55s1.69,15.43-13.21,17.89"/><path class="cls-6" d="M133.83,199.42s-1.68,15.43,13.22,17.89"/><path class="cls-7" d="M93.16,157.57a16.78,16.78,0,0,1,16.26,2.18"/><ellipse class="cls-8" cx="102.32" cy="164.81" rx="4.41" ry="6.73"/><path class="cls-7" d="M148,157.57a16.78,16.78,0,0,0-16.26,2.18"/><path class="cls-8" d="M134.39,164.81c0,3.71,2,6.73,4.41,6.73s4.4-3,4.4-6.73-2-6.74-4.4-6.74-4.41,3-4.41,6.74"/><circle class="cls-1" cx="121.13" cy="177.59" r="0.63"/><path class="cls-9" d="M97.91,146.9a10.25,10.25,0,0,1,8.82,0"/><path class="cls-2" d="M112.12,159.59a97.31,97.31,0,0,1-.73-18.09l2.18,18.09Z"/><path class="cls-2" d="M120.32,158.07a91.47,91.47,0,0,1-.78-18.08l2.32,18.08Z"/><path class="cls-2" d="M130.39,159.59s2-9.66,1.06-18.09l-3.17,18.09Z"/><path class="cls-9" d="M144.24,146.9a10.23,10.23,0,0,0-8.81,0"/><path class="cls-10" d="M115.12,184.23s5.88,7.53,14,0"/><polygon class="cls-11" points="270.94 192.11 272.59 213.78 270.94 224.21 293 222.41 295.14 210.1 295.76 192.11 270.94 192.11"/><path class="cls-1" d="M271.93,199.81s10.95,8.87,15.73,7.56,7.48-7.56,7.48-7.56"/><path class="cls-12" d="M328.35,147.26c0,26-19.26,54.25-45.31,54.25S239.26,175,239.26,148.93,257,107.18,283,107.18,328.35,121.21,328.35,147.26Z"/><path class="cls-6" d="M271.9,199.44s1.69,15.44-13.21,17.89"/><path class="cls-6" d="M303.4,220.08c-14-2.32-6.95-8.84-8.26-14.33a13.68,13.68,0,0,1,.06-6.44"/><path class="cls-7" d="M254.68,159.63a16.79,16.79,0,0,1,16.26-2.19"/><ellipse class="cls-8" cx="263.69" cy="163.25" rx="4.41" ry="5.29"/><path class="cls-7" d="M309,160.34a16.78,16.78,0,0,0-16-3.64"/><path class="cls-8" d="M295.76,163.25c0,2.92,2,5.29,4.41,5.29s4.4-2.37,4.4-5.29-2-5.28-4.4-5.28-4.41,2.36-4.41,5.28"/><circle class="cls-1" cx="282.5" cy="177.48" r="0.63"/><path class="cls-9" d="M259.28,146.79a10.25,10.25,0,0,1,8.82,0"/><path class="cls-11" d="M273.49,159.48a97.24,97.24,0,0,1-.73-18.08l2.17,18.08Z"/><path class="cls-11" d="M281.69,158a91.54,91.54,0,0,1-.78-18.09L283.23,158Z"/><path class="cls-11" d="M291.76,159.48s2-9.66,1.05-18.08l-3.16,18.08Z"/><path class="cls-9" d="M305.61,146.79a10.25,10.25,0,0,0-8.82,0"/><path class="cls-10" d="M275.48,184.13s6.89,7.52,15,0"/><path class="cls-13" d="M271.93,118.14s-1,23.93,17.72,31.05l-3.24-15.52a34,34,0,0,0,18.16,15.52L301,133.67s6.72,20.65,14.81,26v-9.19s4.18,17.23,1.61,21.26c0,0,8.67,5.75,15.95-17.09a47.67,47.67,0,0,0,2.1-17.09c-1.42-26.84-24-48-50.87-48.05a7.8,7.8,0,0,1-2.1,0c-11.56-3.32-43.63,17.14-48.35,33.32s-2.73,46.48,15.45,49.51C249.6,172.34,245.11,134.53,271.93,118.14Z"/><path class="cls-14" d="M295.14,205.75H271.93c-3.57,12-14.79,11.3-14.79,11.3L229,230.35H332.77l-24.72-13S299.18,217.89,295.14,205.75Z"/><polygon class="cls-15" points="428.05 191.84 429.7 213.52 428.05 223.95 450.11 222.15 452.26 209.83 452.87 191.84 428.05 191.84"/><path class="cls-1" d="M429,199.55s11,8.86,15.74,7.55,7.47-7.55,7.47-7.55"/><path class="cls-5" d="M482.47,147c0,26-16.27,54.25-42.32,54.25s-40.77-26.53-40.77-52.58,14.72-41.74,40.77-41.74S482.47,120.94,482.47,147Z"/><path class="cls-6" d="M429,199.18s1.68,15.43-13.22,17.89"/><path class="cls-6" d="M460.52,219.81c-14-2.32-6.95-8.84-8.27-14.33a13.68,13.68,0,0,1,.06-6.44"/><path class="cls-7" d="M408.72,162.41s9.66-8.74,19.33-5.24"/><path class="cls-8" d="M425.21,164.44c0,3.71-2,2.14-4.41,2.14s-4.4,1.57-4.4-2.14,2-6.74,4.4-6.74S425.21,160.72,425.21,164.44Z"/><path class="cls-7" d="M470,162.41s-10-8.6-19.91-6"/><path class="cls-8" d="M452.87,164.44c0,3.71,2,2.47,4.41,2.47s4.41,1.24,4.41-2.47-2-6.74-4.41-6.74-4.41,3-4.41,6.74"/><circle class="cls-1" cx="439.61" cy="177.22" r="0.63"/><path class="cls-9" d="M416.4,146.53a10.22,10.22,0,0,1,8.81,0"/><path class="cls-9" d="M462.72,146.53a10.22,10.22,0,0,0-8.81,0"/><path class="cls-10" d="M432.6,183.86s6.88,7.53,15,0"/><polygon class="cls-15" points="587.05 192.5 588.7 214.17 587.05 224.6 609.11 222.8 611.26 210.49 611.87 192.5 587.05 192.5"/><path class="cls-1" d="M588,200.2s11,8.86,15.74,7.55,7.47-7.55,7.47-7.55"/><path class="cls-16" d="M636.87,162.06c0,26.05-11.67,38.84-37.72,38.84s-40.24-16.78-38-42.73,12-51.6,38-51.6S636.87,136,636.87,162.06Z"/><path class="cls-6" d="M588,199.83s1.68,15.43-13.22,17.89"/><path class="cls-6" d="M628.31,222.07c-14-2.32-14.74-9.45-16.06-14.94a19.08,19.08,0,0,1,.06-7.43"/><path class="cls-7" d="M567.72,163.06s9.66-8.74,19.33-5.23"/><path class="cls-7" d="M629,163.06s-10-8.6-19.91-6"/><circle class="cls-1" cx="598.61" cy="177.87" r="0.63"/><path class="cls-9" d="M575.4,147.18a10.22,10.22,0,0,1,8.81,0"/><path class="cls-9" d="M621.72,147.18a10.22,10.22,0,0,0-8.81,0"/><path class="cls-10" d="M591.6,184.52s6.88,7.52,15,0"/><ellipse class="cls-8" cx="582.16" cy="164.76" rx="3.6" ry="2.35"/><ellipse class="cls-8" cx="614.19" cy="164.76" rx="3.6" ry="2.35"/><path class="cls-8" d="M619.09,122.2a7.28,7.28,0,0,0-10.65,3.6c-3,8.61-8.13,23-9.32,23.59s-15.7-1.06-25.25-2.2a9.1,9.1,0,0,0-10.14,7c-2,10-4.24,26.39,1.67,32,8.7,8.3-2.4,14.51,1.44,22.88a6.86,6.86,0,0,1,.56,4.09c-1.09,6.24-10.81,5.6-11.22-.72-.47-7.31-1.41-15.94-3.25-18.84-3.4-5.38-22.39-83.64,30-96.39s64,25.69,66.74,36-11.24,41.2-1,49.2-12.34,36.76-15.94,37.19-5.45.24,0-11.48c4.81-10.35-6.18-29.62-.89-52a32.43,32.43,0,0,0-6.09-27.92A26.14,26.14,0,0,0,619.09,122.2Z"/><path class="cls-3" d="M133.75,206H110.54c-3.57,12-14.78,11.3-14.78,11.3l-28.15,13.3H171.39l-24.72-13S137.8,218.12,133.75,206Z"/><path class="cls-13" d="M158.35,230.45c11.37-25.72,14.86-73.47,12.24-96.75a46.78,46.78,0,0,0-22.44-35.25c-27.29-16-55.69-2.86-67.89,18.5-15.62,27.33,2.06,113.49,2.06,113.49l22.19-.05s-.12,1-2.9-7.08c-1.9-5.55-5.06-15.38-10.28-32.76C79,149.57,102,122.49,102,122.49s-.84,13.57,4.1,32h29.5s5.38-10.2,5.45-32.57c0-.18,25.74,35,0,108.57Z"/><path class="cls-17" d="M452.05,205.75H428.84c-3.57,12-14.78,11.3-14.78,11.3l-28.15,13.3H489.69l-24.72-13S456.1,217.89,452.05,205.75Z"/><path class="cls-18" d="M611.23,205.75H588c-3.58,12-14.79,11.3-14.79,11.3l-28.14,13.3H648.87l-24.72-13S615.28,217.89,611.23,205.75Z"/><path class="cls-19" d="M432.9,118.86s-15.58-7.51-1.66-23.75,10.82-14.67,10.82-14.67a16,16,0,0,0-.16,5.22,4.23,4.23,0,0,0,1.88,3.16c3.14,1.75,0-12.57,0-12.57s13,7.16,12,16.06-5,26.55,0,26.55Z"/><path class="cls-13" d="M447.59,114.07a7.52,7.52,0,0,0,6.32,4.85c5.06.68,21.51,6.87,18.67,21s7.12,26,7.12,26,10.95-15.77,8-28.31-3.51-30.88-16.59-35.06-19.37-13.08-23.51-10.78"/><path class="cls-13" d="M433.69,116.31a7.52,7.52,0,0,1-6.31,4.86c-5.06.67-21.51,6.87-18.68,21s-7.11,26-7.11,26-10.95-15.78-8-28.31,4-31.24,17.1-35.42,18.86-13.21,23-10.92"/><path class="cls-13" d="M428.05,114.86s-.36,7.84,9.75,7.84,20.63-2.19,22.72-7.84"/><path class="cls-1" d="M1201.58,160s6.1,24.44-2.61,38.69,4.68,29.9,4.68,29.9l82.39,1.18s15.88-9.17,12.53-24.34-14-21-13.26-31.81S1201.58,160,1201.58,160Z"/><polygon class="cls-2" points="758.97 194.44 742.33 217.42 747.09 231.81 798.74 231.81 805.67 211.48 794.73 196.31 758.97 194.44"/><path class="cls-3" d="M759.73,206.69h23.21s3.08,14.8,18,11.1-6.32,13.5-6.32,13.5H748.8L745,219A16.56,16.56,0,0,0,759.73,206.69Z"/><path class="cls-4" d="M734.16,186.27l5.39,28.82,9.12,2.7s13.44-3.55,11.06-17C759.73,200.75,738,182,734.16,186.27Z"/><path class="cls-4" d="M807.1,182l-24.16,13.16.41,12.08s7.36,16.14,18.71,10.16C802.06,217.42,812.17,185.91,807.1,182Z"/><path class="cls-1" d="M759.73,200.75s11,8.87,15.73,7.56,7.48-7.56,7.48-7.56"/><path class="cls-5" d="M816.16,148.2c0,26.05-19.27,54.25-45.32,54.25s-43.77-26.53-43.77-52.58,17.72-41.75,43.77-41.75S816.16,122.15,816.16,148.2Z"/><path class="cls-6" d="M759.7,200.38s1.69,15.44-13.21,17.9"/><path class="cls-6" d="M783,200.25s-1.68,15.44,13.22,17.89"/><path class="cls-7" d="M742.33,158.41a16.78,16.78,0,0,1,16.26,2.18"/><ellipse class="cls-8" cx="751.49" cy="165.64" rx="4.41" ry="6.73"/><path class="cls-7" d="M797.13,158.41a16.78,16.78,0,0,0-16.26,2.18"/><path class="cls-8" d="M783.56,165.64c0,3.72,2,6.74,4.41,6.74s4.4-3,4.4-6.74-2-6.73-4.4-6.73-4.41,3-4.41,6.73"/><circle class="cls-1" cx="770.3" cy="178.42" r="0.63"/><path class="cls-9" d="M747.09,147.74a10.22,10.22,0,0,1,8.81,0"/><path class="cls-2" d="M761.29,160.43a96.78,96.78,0,0,1-.72-18.09l2.17,18.09Z"/><path class="cls-2" d="M769.49,158.91a91,91,0,0,1-.77-18.08L771,158.91Z"/><path class="cls-2" d="M779.56,160.43s2-9.66,1.06-18.09l-3.17,18.09Z"/><path class="cls-9" d="M793.41,147.74a10.22,10.22,0,0,0-8.81,0"/><path class="cls-10" d="M764.29,185.07s5.88,7.53,14,0"/><polygon class="cls-11" points="920.11 192.94 921.76 214.62 920.11 225.05 942.17 223.25 944.31 210.94 944.93 192.94 920.11 192.94"/><path class="cls-1" d="M921.1,200.65s11,8.86,15.73,7.55,7.48-7.55,7.48-7.55"/><path class="cls-12" d="M977.52,148.09c0,26-19.26,54.26-45.31,54.26s-43.77-26.54-43.77-52.59S906.16,108,932.21,108,977.52,122,977.52,148.09Z"/><path class="cls-6" d="M921.07,200.28s1.69,15.43-13.21,17.89"/><path class="cls-6" d="M952.57,220.91c-14.05-2.31-7-8.84-8.26-14.33a13.65,13.65,0,0,1,.06-6.43"/><path class="cls-7" d="M903.85,160.46a16.8,16.8,0,0,1,16.26-2.18"/><ellipse class="cls-8" cx="912.86" cy="164.09" rx="4.41" ry="5.29"/><path class="cls-7" d="M958.17,161.17a16.83,16.83,0,0,0-16-3.64"/><path class="cls-8" d="M944.93,164.09c0,2.92,2,5.29,4.41,5.29s4.4-2.37,4.4-5.29-2-5.29-4.4-5.29-4.41,2.37-4.41,5.29"/><circle class="cls-1" cx="931.67" cy="178.32" r="0.63"/><path class="cls-9" d="M908.45,147.63a10.25,10.25,0,0,1,8.82,0"/><path class="cls-11" d="M922.66,160.32a97.24,97.24,0,0,1-.73-18.08l2.18,18.08Z"/><path class="cls-11" d="M930.86,158.8a91.41,91.41,0,0,1-.78-18.08l2.32,18.08Z"/><path class="cls-11" d="M940.93,160.32s2-9.66,1.06-18.08l-3.17,18.08Z"/><path class="cls-9" d="M954.78,147.63a10.23,10.23,0,0,0-8.81,0"/><path class="cls-10" d="M924.66,185s6.88,7.52,15,0"/><path class="cls-13" d="M921.1,119s-1,23.93,17.72,31l-3.24-15.52A34,34,0,0,0,953.74,150l-3.57-15.52s6.72,20.66,14.81,26v-9.18s4.18,17.23,1.62,21.25c0,0,8.66,5.76,15.94-17.09a47.65,47.65,0,0,0,2.1-17.09c-1.42-26.83-24-48-50.87-48a7.4,7.4,0,0,1-2.1,0C920.11,87,888,107.49,883.32,123.67s-2.73,46.48,15.46,49.51C898.78,173.18,894.28,135.36,921.1,119Z"/><path class="cls-14" d="M944.31,206.58H921.1c-3.57,12-14.78,11.3-14.78,11.3l-28.15,13.31H982l-24.73-13S948.35,218.73,944.31,206.58Z"/><polygon class="cls-15" points="1077.22 192.68 1078.87 214.36 1077.22 224.78 1099.28 222.99 1101.43 210.67 1102.05 192.68 1077.22 192.68"/><path class="cls-1" d="M1078.22,200.38s11,8.87,15.73,7.56,7.47-7.56,7.47-7.56"/><path class="cls-16" d="M1131.64,147.83c0,26-16.27,54.25-42.32,54.25s-40.77-26.53-40.77-52.58,14.73-41.75,40.77-41.75S1131.64,121.78,1131.64,147.83Z"/><path class="cls-6" d="M1078.19,200s1.68,15.44-13.22,17.9"/><path class="cls-6" d="M1109.69,220.65c-14-2.32-7-8.84-8.27-14.33a13.6,13.6,0,0,1,.07-6.44"/><path class="cls-7" d="M1057.89,163.24s9.67-8.74,19.33-5.23"/><path class="cls-8" d="M1074.38,165.27c0,3.72-2,2.15-4.4,2.15s-4.41,1.57-4.41-2.15,2-6.73,4.41-6.73S1074.38,161.55,1074.38,165.27Z"/><path class="cls-7" d="M1119.19,163.24s-10-8.6-19.91-6"/><path class="cls-8" d="M1102.05,165.27c0,3.72,2,2.48,4.4,2.48s4.41,1.24,4.41-2.48-2-6.73-4.41-6.73-4.4,3-4.4,6.73"/><circle class="cls-1" cx="1088.78" cy="178.05" r="0.63"/><path class="cls-9" d="M1065.57,147.37a10.22,10.22,0,0,1,8.81,0"/><path class="cls-9" d="M1111.89,147.37a10.22,10.22,0,0,0-8.81,0"/><path class="cls-10" d="M1081.77,184.7s6.88,7.53,15,0"/><polygon class="cls-15" points="1236.22 193.33 1237.87 215.01 1236.22 225.44 1258.28 223.64 1260.43 211.32 1261.05 193.33 1236.22 193.33"/><path class="cls-1" d="M1237.22,201s11,8.86,15.73,7.55,7.47-7.55,7.47-7.55"/><path class="cls-16" d="M1286,162.9c0,26-11.67,38.83-37.72,38.83s-40.24-16.77-38-42.72,12-51.6,38-51.6S1286,136.85,1286,162.9Z"/><path class="cls-6" d="M1237.19,200.67s1.68,15.43-13.22,17.89"/><path class="cls-6" d="M1277.49,222.9c-14-2.31-14.75-9.44-16.07-14.93a19,19,0,0,1,.07-7.43"/><path class="cls-7" d="M1216.89,163.9s9.67-8.74,19.33-5.24"/><path class="cls-7" d="M1278.19,163.9s-10-8.6-19.91-6"/><circle class="cls-1" cx="1247.78" cy="178.71" r="0.63"/><path class="cls-9" d="M1224.57,148a10.22,10.22,0,0,1,8.81,0"/><path class="cls-9" d="M1270.89,148a10.22,10.22,0,0,0-8.81,0"/><path class="cls-10" d="M1240.77,185.35s6.88,7.53,15,0"/><ellipse class="cls-8" cx="1231.33" cy="165.6" rx="3.6" ry="2.35"/><ellipse class="cls-8" cx="1263.37" cy="165.6" rx="3.6" ry="2.35"/><path class="cls-8" d="M1268.27,123a7.3,7.3,0,0,0-10.66,3.61c-3,8.61-8.13,23-9.32,23.59s-15.7-1.06-25.25-2.21a9.12,9.12,0,0,0-10.14,7c-2,10-4.24,26.39,1.67,32,8.7,8.3-2.4,14.51,1.44,22.88a6.86,6.86,0,0,1,.56,4.09c-1.08,6.24-10.81,5.59-11.22-.72-.47-7.32-1.41-15.94-3.25-18.84-3.39-5.38-22.39-83.65,30-96.39s64,25.69,66.74,36-11.24,41.19-1,49.19-12.33,36.76-15.94,37.2-5.45.24,0-11.48c4.81-10.36-6.18-29.62-.89-52a32.42,32.42,0,0,0-6.09-27.92A26.49,26.49,0,0,0,1268.27,123Z"/><path class="cls-3" d="M782.92,206.82H759.71c-3.57,12-14.78,11.3-14.78,11.3l-28.15,13.3H820.56l-24.72-13S787,219,782.92,206.82Z"/><path class="cls-13" d="M807.52,231.29c11.37-25.72,14.86-73.47,12.24-96.75a46.75,46.75,0,0,0-22.44-35.25c-27.29-16-55.69-2.86-67.89,18.49-15.62,27.34,2.06,113.49,2.06,113.49l22.19-.05s-.12,1-2.9-7.08c-1.9-5.55-5.06-15.38-10.28-32.75-12.32-41,10.71-68.06,10.71-68.06s-.84,13.57,4.1,32h29.51s5.37-10.21,5.44-32.57c0-.18,25.74,35,0,108.57Z"/><path class="cls-17" d="M1101.22,206.58H1078c-3.57,12-14.78,11.3-14.78,11.3l-28.15,13.31h103.78l-24.72-13S1105.27,218.72,1101.22,206.58Z"/><path class="cls-18" d="M1260.4,206.58h-23.2c-3.57,12-14.79,11.3-14.79,11.3l-28.14,13.31H1298l-24.72-13S1264.45,218.72,1260.4,206.58Z"/><path class="cls-19" d="M1082.07,119.69s-15.58-7.5-1.66-23.74,10.83-14.67,10.83-14.67a15.77,15.77,0,0,0-.17,5.21,4.31,4.31,0,0,0,1.88,3.17c3.14,1.75,0-12.57,0-12.57s13,7.16,12,16.06-5,26.54,0,26.54Z"/><path class="cls-13" d="M1096.77,114.9a7.52,7.52,0,0,0,6.31,4.86c5.06.67,21.51,6.87,18.68,21s7.11,26,7.11,26,11-15.78,8-28.31-3.51-30.88-16.59-35.06-19.37-13.08-23.5-10.79"/><path class="cls-13" d="M1082.87,117.15a7.54,7.54,0,0,1-6.32,4.86c-5.06.67-21.51,6.86-18.67,21s-7.12,26-7.12,26-11-15.78-8-28.32,4-31.23,17.1-35.41,18.86-13.22,23-10.92"/><path class="cls-13" d="M1077.22,115.7s-.36,7.83,9.75,7.83,20.63-2.18,22.72-7.83"/><path class="cls-1" d="M552.21,371.45s6.1,24.45-2.61,38.7S554.29,440,554.29,440l82.39,1.18s15.88-9.17,12.52-24.34-14-21-13.26-31.8S552.21,371.45,552.21,371.45Z"/><polygon class="cls-2" points="109.61 405.88 92.96 428.86 97.72 443.26 149.37 443.26 156.31 422.92 145.37 407.76 109.61 405.88"/><path class="cls-3" d="M110.37,418.13h23.2s3.09,14.8,18,11.1-6.32,13.5-6.32,13.5H99.43l-3.85-12.3A16.56,16.56,0,0,0,110.37,418.13Z"/><path class="cls-4" d="M84.79,397.71l5.4,28.82,9.11,2.7s13.44-3.55,11.07-17C110.37,412.2,88.64,393.4,84.79,397.71Z"/><path class="cls-4" d="M157.73,393.46l-24.16,13.17L134,418.7s7.35,16.14,18.7,10.17C152.69,428.87,162.8,397.36,157.73,393.46Z"/><path class="cls-1" d="M110.37,412.2s10.95,8.86,15.73,7.55,7.47-7.55,7.47-7.55"/><path class="cls-5" d="M166.79,359.64c0,26.05-19.27,54.26-45.32,54.26S77.7,387.36,77.7,361.31s17.73-41.74,43.77-41.74S166.79,333.59,166.79,359.64Z"/><path class="cls-6" d="M110.34,411.83s1.68,15.43-13.22,17.89"/><path class="cls-6" d="M133.64,411.7s-1.69,15.43,13.21,17.89"/><path class="cls-7" d="M93,369.85A16.82,16.82,0,0,1,109.22,372"/><ellipse class="cls-8" cx="102.13" cy="377.09" rx="4.41" ry="6.73"/><path class="cls-7" d="M147.77,369.85A16.82,16.82,0,0,0,131.51,372"/><path class="cls-8" d="M134.2,377.09c0,3.72,2,6.73,4.4,6.73s4.41-3,4.41-6.73-2-6.74-4.41-6.74-4.4,3-4.4,6.74"/><circle class="cls-1" cx="120.93" cy="389.87" r="0.63"/><path class="cls-9" d="M97.72,359.18a10.22,10.22,0,0,1,8.81,0"/><path class="cls-2" d="M111.92,371.87a97.76,97.76,0,0,1-.72-18.09l2.17,18.09Z"/><path class="cls-2" d="M120.12,370.35a91,91,0,0,1-.77-18.08l2.32,18.08Z"/><path class="cls-2" d="M130.19,371.87s2-9.66,1.06-18.09l-3.17,18.09Z"/><path class="cls-9" d="M144,359.18a10.22,10.22,0,0,0-8.81,0"/><path class="cls-10" d="M114.92,396.51s5.88,7.53,14,0"/><polygon class="cls-11" points="270.74 404.39 272.39 426.06 270.74 436.49 292.8 434.69 294.95 422.38 295.56 404.39 270.74 404.39"/><path class="cls-1" d="M271.73,412.09s11,8.87,15.74,7.56,7.47-7.56,7.47-7.56"/><path class="cls-12" d="M328.16,359.54c0,26-19.27,54.25-45.32,54.25s-43.77-26.54-43.77-52.58,17.72-41.75,43.77-41.75S328.16,333.49,328.16,359.54Z"/><path class="cls-6" d="M271.71,411.72s1.68,15.44-13.22,17.89"/><path class="cls-6" d="M303.21,432.36c-14-2.32-6.95-8.84-8.27-14.33a13.68,13.68,0,0,1,.06-6.44"/><path class="cls-7" d="M254.48,371.91a16.79,16.79,0,0,1,16.26-2.19"/><ellipse class="cls-8" cx="263.49" cy="375.53" rx="4.41" ry="5.29"/><path class="cls-7" d="M308.8,372.62a16.79,16.79,0,0,0-16-3.64"/><path class="cls-8" d="M295.56,375.53c0,2.92,2,5.29,4.41,5.29s4.41-2.37,4.41-5.29-2-5.28-4.41-5.28-4.41,2.36-4.41,5.28"/><circle class="cls-1" cx="282.3" cy="389.76" r="0.63"/><path class="cls-9" d="M259.09,359.07a10.22,10.22,0,0,1,8.81,0"/><path class="cls-11" d="M273.29,371.76a97.62,97.62,0,0,1-.72-18.08l2.17,18.08Z"/><path class="cls-11" d="M281.49,370.25a91.07,91.07,0,0,1-.77-18.09L283,370.25Z"/><path class="cls-11" d="M291.56,371.76s2-9.65,1.06-18.08l-3.17,18.08Z"/><path class="cls-9" d="M305.41,359.07a10.22,10.22,0,0,0-8.81,0"/><path class="cls-10" d="M275.29,396.41s6.88,7.52,15,0"/><path class="cls-13" d="M271.73,330.43s-1,23.92,17.72,31L286.22,346a33.94,33.94,0,0,0,18.16,15.52L300.8,346s6.72,20.65,14.81,26v-9.19S319.79,380,317.23,384c0,0,8.66,5.75,15.94-17.09a47.91,47.91,0,0,0,2.11-17.09c-1.42-26.84-24-48-50.87-48.05a7.87,7.87,0,0,1-2.11,0c-11.56-3.32-43.62,17.14-48.34,33.32s-2.74,46.48,15.45,49.51C249.41,384.62,244.91,346.81,271.73,330.43Z"/><path class="cls-14" d="M294.94,418H271.73c-3.57,12-14.78,11.3-14.78,11.3l-28.15,13.3H332.58l-24.72-13S299,430.17,294.94,418Z"/><polygon class="cls-15" points="427.86 404.12 429.51 425.8 427.86 436.23 449.92 434.43 452.06 422.12 452.68 404.12 427.86 404.12"/><path class="cls-1" d="M428.85,411.83s10.95,8.86,15.73,7.55,7.47-7.55,7.47-7.55"/><path class="cls-16" d="M482.27,359.27c0,26.05-16.26,54.25-42.31,54.25S399.18,387,399.18,360.94,413.91,319.2,440,319.2,482.27,333.22,482.27,359.27Z"/><path class="cls-6" d="M428.82,411.46s1.69,15.43-13.21,17.89"/><path class="cls-6" d="M460.32,432.09c-14.05-2.32-6.95-8.84-8.27-14.33a13.72,13.72,0,0,1,.07-6.43"/><path class="cls-7" d="M408.52,374.69s9.67-8.74,19.34-5.24"/><path class="cls-8" d="M425,376.72c0,3.71-2,2.14-4.41,2.14s-4.41,1.57-4.41-2.14,2-6.74,4.41-6.74S425,373,425,376.72Z"/><path class="cls-7" d="M469.83,374.69s-10-8.6-19.91-6"/><path class="cls-8" d="M452.68,376.72c0,3.71,2,2.47,4.41,2.47s4.4,1.24,4.4-2.47-2-6.74-4.4-6.74-4.41,3-4.41,6.74"/><circle class="cls-1" cx="439.42" cy="389.5" r="0.63"/><path class="cls-9" d="M416.2,358.81a10.25,10.25,0,0,1,8.82,0"/><path class="cls-9" d="M462.53,358.81a10.25,10.25,0,0,0-8.82,0"/><path class="cls-10" d="M432.4,396.14s6.89,7.53,15,0"/><polygon class="cls-15" points="586.86 404.78 588.51 426.45 586.86 436.88 608.92 435.08 611.06 422.77 611.68 404.78 586.86 404.78"/><path class="cls-1" d="M587.85,412.48s10.95,8.87,15.73,7.56,7.47-7.56,7.47-7.56"/><path class="cls-16" d="M636.68,374.34c0,26.05-11.67,38.84-37.72,38.84s-40.25-16.78-38-42.73,12-51.6,38-51.6S636.68,348.29,636.68,374.34Z"/><path class="cls-6" d="M587.82,412.11s1.69,15.43-13.21,17.89"/><path class="cls-6" d="M628.12,434.35c-14-2.32-14.75-9.45-16.07-14.93a19.24,19.24,0,0,1,.07-7.44"/><path class="cls-7" d="M567.52,375.34s9.67-8.74,19.34-5.23"/><path class="cls-7" d="M628.83,375.34s-10-8.6-19.91-6"/><circle class="cls-1" cx="598.42" cy="390.15" r="0.63"/><path class="cls-9" d="M575.2,359.46a10.25,10.25,0,0,1,8.82,0"/><path class="cls-9" d="M621.53,359.46a10.25,10.25,0,0,0-8.82,0"/><path class="cls-10" d="M591.4,396.8s6.89,7.52,15,0"/><ellipse class="cls-8" cx="581.96" cy="377.04" rx="3.6" ry="2.35"/><ellipse class="cls-8" cx="614" cy="377.04" rx="3.6" ry="2.35"/><path class="cls-8" d="M618.9,334.48a7.3,7.3,0,0,0-10.66,3.6c-3,8.61-8.13,23-9.32,23.59s-15.7-1.06-25.25-2.2a9.11,9.11,0,0,0-10.14,7c-2,10-4.24,26.39,1.67,32,8.7,8.31-2.39,14.51,1.44,22.88a6.79,6.79,0,0,1,.56,4.09c-1.08,6.24-10.8,5.6-11.21-.72-.48-7.31-1.42-15.94-3.25-18.84-3.4-5.37-22.39-83.64,30-96.39s64,25.69,66.74,36-11.23,41.2-1,49.2-12.33,36.76-15.94,37.19-5.44.24,0-11.48c4.81-10.35-6.18-29.61-.88-52a32.47,32.47,0,0,0-6.09-27.92A26.3,26.3,0,0,0,618.9,334.48Z"/><path class="cls-3" d="M133.55,418.26h-23.2c-3.57,12-14.79,11.3-14.79,11.3l-28.14,13.3H171.19l-24.72-13S137.6,430.4,133.55,418.26Z"/><path class="cls-13" d="M158.16,442.73C169.53,417,173,369.26,170.39,346A46.74,46.74,0,0,0,148,310.73c-27.3-16-55.69-2.86-67.9,18.5-15.61,27.33,2.06,113.49,2.06,113.49l22.19-.05s-.11,1-2.89-7.08c-1.91-5.55-5.06-15.38-10.29-32.76-12.31-41,10.72-68.06,10.72-68.06s-.85,13.57,4.1,32h29.5s5.38-10.2,5.44-32.57c0-.18,25.74,35,0,108.57Z"/><path class="cls-17" d="M451.85,418h-23.2c-3.57,12-14.79,11.3-14.79,11.3l-28.14,13.3H489.49l-24.72-13S455.9,430.17,451.85,418Z"/><path class="cls-18" d="M611,418H587.83c-3.57,12-14.78,11.3-14.78,11.3l-28.15,13.3H648.68l-24.72-13S615.09,430.17,611,418Z"/><path class="cls-19" d="M432.71,331.14s-15.58-7.51-1.67-23.75,10.83-14.67,10.83-14.67a15.81,15.81,0,0,0-.17,5.22,4.27,4.27,0,0,0,1.89,3.16c3.14,1.75,0-12.57,0-12.57s12.94,7.16,12,16.07-4.95,26.54.05,26.54Z"/><path class="cls-13" d="M447.4,326.35a7.52,7.52,0,0,0,6.31,4.85c5.06.68,21.51,6.87,18.68,21s7.11,26,7.11,26,11-15.77,8-28.31-3.51-30.88-16.58-35.06S451.53,301.67,447.4,304"/><path class="cls-13" d="M433.5,328.6a7.52,7.52,0,0,1-6.32,4.85c-5.05.67-21.5,6.87-18.67,21s-7.12,26-7.12,26-10.95-15.77-8-28.31,4-31.24,17.09-35.42,18.87-13.21,23-10.92"/><path class="cls-13" d="M427.86,327.14s-.37,7.84,9.74,7.84,20.63-2.19,22.72-7.84"/><path class="cls-1" d="M1201.38,372.29s6.11,24.44-2.61,38.7,4.69,29.89,4.69,29.89l82.39,1.18s15.88-9.17,12.53-24.34-14-21-13.27-31.8S1201.38,372.29,1201.38,372.29Z"/><polygon class="cls-2" points="758.78 406.72 742.13 429.7 746.89 444.1 798.54 444.1 805.48 423.76 794.54 408.59 758.78 406.72"/><path class="cls-3" d="M759.54,419h23.2s3.09,14.8,18,11.1-6.32,13.5-6.32,13.5H748.61l-3.86-12.3A16.57,16.57,0,0,0,759.54,419Z"/><path class="cls-4" d="M734,398.55l5.4,28.82,9.12,2.7s13.43-3.55,11.06-17C759.54,413,737.82,394.23,734,398.55Z"/><path class="cls-4" d="M806.91,394.3l-24.17,13.16.42,12.08s7.35,16.14,18.7,10.16C801.86,429.7,812,398.2,806.91,394.3Z"/><path class="cls-1" d="M759.54,413s11,8.86,15.73,7.55,7.47-7.55,7.47-7.55"/><path class="cls-5" d="M816,360.48c0,26-19.27,54.25-45.31,54.25s-43.78-26.53-43.78-52.58,17.73-41.75,43.78-41.75S816,334.43,816,360.48Z"/><path class="cls-6" d="M759.51,412.66s1.68,15.44-13.22,17.9"/><path class="cls-6" d="M782.81,412.53S781.12,428,796,430.43"/><path class="cls-7" d="M742.13,370.69a16.78,16.78,0,0,1,16.26,2.18"/><ellipse class="cls-8" cx="751.3" cy="377.92" rx="4.41" ry="6.73"/><path class="cls-7" d="M796.94,370.69a16.78,16.78,0,0,0-16.26,2.18"/><path class="cls-8" d="M783.37,377.92c0,3.72,2,6.74,4.4,6.74s4.41-3,4.41-6.74-2-6.73-4.41-6.73-4.4,3-4.4,6.73"/><circle class="cls-1" cx="770.1" cy="390.7" r="0.63"/><path class="cls-9" d="M746.89,360a10.22,10.22,0,0,1,8.81,0"/><path class="cls-2" d="M761.09,372.71a97.76,97.76,0,0,1-.72-18.09l2.17,18.09Z"/><path class="cls-2" d="M769.29,371.19a91.87,91.87,0,0,1-.77-18.08l2.32,18.08Z"/><path class="cls-2" d="M779.37,372.71s2-9.66,1-18.09l-3.17,18.09Z"/><path class="cls-9" d="M793.21,360a10.22,10.22,0,0,0-8.81,0"/><path class="cls-10" d="M764.09,397.35s5.88,7.53,14,0"/><polygon class="cls-11" points="919.91 405.23 921.57 426.9 919.91 437.33 941.97 435.53 944.12 423.22 944.74 405.23 919.91 405.23"/><path class="cls-1" d="M920.91,412.93s11,8.86,15.73,7.55,7.47-7.55,7.47-7.55"/><path class="cls-12" d="M977.33,360.37c0,26.05-19.27,54.26-45.32,54.26S888.24,388.09,888.24,362,906,320.3,932,320.3,977.33,334.33,977.33,360.37Z"/><path class="cls-6" d="M920.88,412.56s1.68,15.43-13.22,17.89"/><path class="cls-6" d="M952.38,433.19c-14-2.31-7-8.84-8.27-14.33a13.57,13.57,0,0,1,.07-6.43"/><path class="cls-7" d="M903.66,372.74a16.79,16.79,0,0,1,16.25-2.18"/><ellipse class="cls-8" cx="912.67" cy="376.37" rx="4.41" ry="5.29"/><path class="cls-7" d="M958,373.45a16.82,16.82,0,0,0-16-3.64"/><path class="cls-8" d="M944.74,376.37c0,2.92,2,5.29,4.4,5.29s4.41-2.37,4.41-5.29-2-5.28-4.41-5.28-4.4,2.36-4.4,5.28"/><circle class="cls-1" cx="931.47" cy="390.6" r="0.63"/><path class="cls-9" d="M908.26,359.91a10.22,10.22,0,0,1,8.81,0"/><path class="cls-11" d="M922.46,372.6a97.69,97.69,0,0,1-.72-18.08l2.17,18.08Z"/><path class="cls-11" d="M930.66,371.09a91.07,91.07,0,0,1-.77-18.09l2.32,18.09Z"/><path class="cls-11" d="M940.73,372.6s2-9.66,1.06-18.08l-3.17,18.08Z"/><path class="cls-9" d="M954.58,359.91a10.22,10.22,0,0,0-8.81,0"/><path class="cls-10" d="M924.46,397.25s6.88,7.52,15,0"/><path class="cls-13" d="M920.91,331.26s-1,23.93,17.71,31.05l-3.23-15.53a34,34,0,0,0,18.16,15.53L950,346.78s6.72,20.66,14.81,26v-9.18s4.18,17.23,1.62,21.25c0,0,8.66,5.76,15.94-17.08a47.94,47.94,0,0,0,2.11-17.09c-1.42-26.84-24-48-50.87-48.06a7.48,7.48,0,0,1-2.11,0c-11.56-3.31-43.62,17.15-48.34,33.33s-2.74,46.48,15.45,49.51C898.58,385.46,894.08,347.64,920.91,331.26Z"/><path class="cls-14" d="M944.11,418.86h-23.2c-3.58,12-14.79,11.31-14.79,11.31L878,443.47H981.75l-24.72-13S948.16,431,944.11,418.86Z"/><polygon class="cls-15" points="1077.03 404.96 1078.68 426.64 1077.03 437.06 1099.09 435.27 1101.23 422.95 1101.85 404.96 1077.03 404.96"/><path class="cls-1" d="M1078,412.66s11,8.87,15.73,7.56,7.48-7.56,7.48-7.56"/><path class="cls-16" d="M1131.44,360.11c0,26.05-16.26,54.25-42.31,54.25s-40.77-26.53-40.77-52.58S1063.08,320,1089.13,320,1131.44,334.06,1131.44,360.11Z"/><path class="cls-6" d="M1078,412.29s1.69,15.44-13.21,17.9"/><path class="cls-6" d="M1109.49,432.93c-14-2.32-7-8.84-8.26-14.33a13.68,13.68,0,0,1,.06-6.44"/><path class="cls-7" d="M1057.7,375.53s9.66-8.75,19.33-5.24"/><path class="cls-8" d="M1074.19,377.55c0,3.72-2,2.15-4.41,2.15s-4.41,1.57-4.41-2.15,2-6.73,4.41-6.73S1074.19,373.83,1074.19,377.55Z"/><path class="cls-7" d="M1119,375.53s-10-8.61-19.91-6"/><path class="cls-8" d="M1101.85,377.55c0,3.72,2,2.48,4.41,2.48s4.4,1.24,4.4-2.48-2-6.73-4.4-6.73-4.41,3-4.41,6.73"/><circle class="cls-1" cx="1088.59" cy="390.33" r="0.63"/><path class="cls-9" d="M1065.37,359.65a10.25,10.25,0,0,1,8.82,0"/><path class="cls-9" d="M1111.7,359.65a10.23,10.23,0,0,0-8.81,0"/><path class="cls-10" d="M1081.58,397s6.88,7.53,15,0"/><polygon class="cls-15" points="1236.03 405.61 1237.68 427.29 1236.03 437.72 1258.09 435.92 1260.23 423.61 1260.85 405.61 1236.03 405.61"/><path class="cls-1" d="M1237,413.32s11,8.86,15.73,7.55,7.48-7.55,7.48-7.55"/><path class="cls-16" d="M1285.85,375.18c0,26.05-11.67,38.84-37.72,38.84s-40.25-16.78-38-42.73,12-51.6,38-51.6S1285.85,349.13,1285.85,375.18Z"/><path class="cls-6" d="M1237,413s1.69,15.43-13.21,17.89"/><path class="cls-6" d="M1277.29,435.19c-14-2.32-14.75-9.45-16.06-14.94a19.08,19.08,0,0,1,.06-7.43"/><path class="cls-7" d="M1216.7,376.18s9.66-8.74,19.33-5.24"/><path class="cls-7" d="M1278,376.18s-10-8.6-19.91-6"/><circle class="cls-1" cx="1247.59" cy="390.99" r="0.63"/><path class="cls-9" d="M1224.37,360.3a10.25,10.25,0,0,1,8.82,0"/><path class="cls-9" d="M1270.7,360.3a10.23,10.23,0,0,0-8.81,0"/><path class="cls-10" d="M1240.58,397.63s6.88,7.53,15,0"/><ellipse class="cls-8" cx="1231.13" cy="377.88" rx="3.6" ry="2.35"/><ellipse class="cls-8" cx="1263.17" cy="377.88" rx="3.6" ry="2.35"/><path class="cls-8" d="M1268.07,335.31a7.29,7.29,0,0,0-10.65,3.61c-3,8.61-8.14,23-9.33,23.59s-15.7-1.06-25.25-2.21a9.12,9.12,0,0,0-10.14,7c-2,10-4.24,26.39,1.67,32,8.71,8.3-2.39,14.51,1.44,22.88a6.79,6.79,0,0,1,.56,4.09c-1.08,6.24-10.8,5.6-11.21-.72-.48-7.31-1.42-15.94-3.25-18.84-3.4-5.38-22.39-83.65,30-96.39s64,25.69,66.74,36-11.23,41.2-1,49.19-12.33,36.76-15.94,37.2-5.44.24,0-11.48c4.81-10.35-6.17-29.62-.88-52a32.45,32.45,0,0,0-6.09-27.92A26.53,26.53,0,0,0,1268.07,335.31Z"/><path class="cls-3" d="M782.73,419.1H759.52c-3.57,12-14.79,11.3-14.79,11.3l-28.14,13.3H820.36l-24.72-13S786.77,431.24,782.73,419.1Z"/><path class="cls-13" d="M807.33,443.57c11.37-25.72,14.85-73.47,12.23-96.75a46.74,46.74,0,0,0-22.43-35.25c-27.29-16-55.69-2.86-67.89,18.49-15.62,27.34,2,113.49,2,113.49l22.2-.05s-.12,1-2.9-7.08c-1.91-5.55-5.06-15.38-10.29-32.75C728,362.69,751,335.61,751,335.61s-.85,13.57,4.1,32h29.5s5.38-10.2,5.45-32.57c0-.18,25.74,35,0,108.57Z"/><path class="cls-17" d="M1101,418.86h-23.21c-3.57,12-14.79,11.31-14.79,11.31l-28.14,13.3h103.77l-24.72-13S1105.07,431,1101,418.86Z"/><path class="cls-18" d="M1260.21,418.86H1237c-3.57,12-14.78,11.31-14.78,11.31l-28.15,13.3h103.78l-24.72-13S1264.26,431,1260.21,418.86Z"/><path class="cls-19" d="M1081.88,332s-15.58-7.5-1.66-23.74S1091,293.56,1091,293.56a15.65,15.65,0,0,0-.16,5.22,4.25,4.25,0,0,0,1.88,3.16c3.14,1.75,0-12.57,0-12.57s12.94,7.16,12,16.06-5,26.54,0,26.54Z"/><path class="cls-13" d="M1096.57,327.19a7.52,7.52,0,0,0,6.32,4.85c5,.67,21.5,6.87,18.67,21s7.12,26,7.12,26,11-15.77,8-28.31-3.5-30.88-16.58-35.06-19.38-13.08-23.51-10.79"/><path class="cls-13" d="M1082.67,329.43a7.54,7.54,0,0,1-6.31,4.86c-5.06.67-21.51,6.86-18.68,21s-7.11,26-7.11,26-11-15.78-8-28.32,4-31.23,17.09-35.41,18.87-13.22,23-10.92"/><path class="cls-13" d="M1077,328s-.36,7.83,9.75,7.83,20.62-2.18,22.71-7.83"/><path class="cls-1" d="M554.22,602.52s6.1,24.44-2.61,38.69,4.69,29.9,4.69,29.9l82.39,1.18s15.88-9.17,12.52-24.34-14-21-13.26-31.8S554.22,602.52,554.22,602.52Z"/><polygon class="cls-2" points="111.61 636.95 94.97 659.93 99.73 674.32 151.38 674.32 158.32 653.99 147.37 638.82 111.61 636.95"/><path class="cls-3" d="M112.37,649.2h23.21s3.08,14.8,18,11.1-6.32,13.5-6.32,13.5H101.44l-3.85-12.3A16.56,16.56,0,0,0,112.37,649.2Z"/><path class="cls-4" d="M86.8,628.78l5.39,28.82,9.12,2.7s13.44-3.55,11.06-17C112.37,643.27,90.65,624.46,86.8,628.78Z"/><path class="cls-4" d="M159.74,624.53l-24.16,13.16.41,12.08s7.36,16.14,18.71,10.16C154.7,659.93,164.81,628.42,159.74,624.53Z"/><path class="cls-1" d="M112.37,643.27s11,8.86,15.74,7.55,7.47-7.55,7.47-7.55"/><path class="cls-5" d="M168.8,590.71c0,26-19.27,54.25-45.32,54.25s-43.77-26.53-43.77-52.58,17.72-41.75,43.77-41.75S168.8,564.66,168.8,590.71Z"/><path class="cls-6" d="M112.34,642.89s1.69,15.44-13.21,17.9"/><path class="cls-6" d="M135.64,642.76s-1.68,15.44,13.22,17.9"/><path class="cls-7" d="M95,600.92a16.78,16.78,0,0,1,16.26,2.18"/><ellipse class="cls-8" cx="104.13" cy="608.15" rx="4.41" ry="6.73"/><path class="cls-7" d="M149.78,600.92a16.81,16.81,0,0,0-16.27,2.18"/><path class="cls-8" d="M136.2,608.15c0,3.72,2,6.74,4.41,6.74s4.41-3,4.41-6.74-2-6.73-4.41-6.73-4.41,3-4.41,6.73"/><circle class="cls-1" cx="122.94" cy="620.93" r="0.63"/><path class="cls-9" d="M99.73,590.25a10.22,10.22,0,0,1,8.81,0"/><path class="cls-2" d="M113.93,602.94a97.76,97.76,0,0,1-.72-18.09l2.17,18.09Z"/><path class="cls-2" d="M122.13,601.42a91,91,0,0,1-.77-18.08l2.32,18.08Z"/><path class="cls-2" d="M132.2,602.94s2-9.66,1.06-18.09l-3.17,18.09Z"/><path class="cls-9" d="M146.05,590.25a10.22,10.22,0,0,0-8.81,0"/><path class="cls-10" d="M116.93,627.58s5.88,7.53,14,0"/><polygon class="cls-11" points="272.75 635.46 274.4 657.13 272.75 667.56 294.81 665.76 296.95 653.45 297.57 635.46 272.75 635.46"/><path class="cls-1" d="M273.74,643.16s11,8.86,15.73,7.55,7.48-7.55,7.48-7.55"/><path class="cls-12" d="M330.17,590.6c0,26-19.27,54.26-45.32,54.26s-43.77-26.54-43.77-52.59,17.72-41.74,43.77-41.74S330.17,564.56,330.17,590.6Z"/><path class="cls-6" d="M273.71,642.79s1.69,15.43-13.21,17.89"/><path class="cls-6" d="M305.21,663.42c-14-2.31-6.94-8.84-8.26-14.33a13.65,13.65,0,0,1,.06-6.43"/><path class="cls-7" d="M256.49,603a16.8,16.8,0,0,1,16.26-2.18"/><ellipse class="cls-8" cx="265.5" cy="606.6" rx="4.41" ry="5.29"/><path class="cls-7" d="M310.81,603.68a16.83,16.83,0,0,0-16-3.64"/><path class="cls-8" d="M297.57,606.6c0,2.92,2,5.29,4.41,5.29s4.4-2.37,4.4-5.29-2-5.28-4.4-5.28-4.41,2.36-4.41,5.28"/><circle class="cls-1" cx="284.31" cy="620.83" r="0.63"/><path class="cls-9" d="M261.1,590.14a10.22,10.22,0,0,1,8.81,0"/><path class="cls-11" d="M275.3,602.83a96.71,96.71,0,0,1-.72-18.08l2.17,18.08Z"/><path class="cls-11" d="M283.5,601.32a91.07,91.07,0,0,1-.77-18.09L285,601.32Z"/><path class="cls-11" d="M293.57,602.83s2-9.66,1.06-18.08l-3.17,18.08Z"/><path class="cls-9" d="M307.42,590.14a10.22,10.22,0,0,0-8.81,0"/><path class="cls-10" d="M277.3,627.48s6.88,7.52,15,0"/><path class="cls-13" d="M273.74,561.49s-1,23.93,17.72,31L288.23,577a33.9,33.9,0,0,0,18.15,15.52L302.81,577s6.72,20.66,14.81,26v-9.18S321.8,611,319.24,615c0,0,8.66,5.76,15.94-17.09a47.62,47.62,0,0,0,2.1-17.08c-1.42-26.84-24-48-50.86-48.06a7.48,7.48,0,0,1-2.11,0C272.75,529.54,240.68,550,236,566.18s-2.74,46.48,15.45,49.51C251.42,615.69,246.92,577.87,273.74,561.49Z"/><path class="cls-14" d="M297,649.09H273.74c-3.57,12-14.78,11.3-14.78,11.3L230.81,673.7H334.59l-24.72-13S301,661.24,297,649.09Z"/><polygon class="cls-15" points="429.87 635.19 431.52 656.87 429.87 667.29 451.93 665.5 454.07 653.18 454.69 635.19 429.87 635.19"/><path class="cls-1" d="M430.86,642.89s10.95,8.87,15.73,7.56,7.47-7.56,7.47-7.56"/><path class="cls-16" d="M484.28,590.34c0,26-16.27,54.25-42.31,54.25S401.19,618.06,401.19,592s14.73-41.75,40.78-41.75S484.28,564.29,484.28,590.34Z"/><path class="cls-6" d="M430.83,642.52s1.68,15.44-13.22,17.9"/><path class="cls-6" d="M462.33,663.16c-14.05-2.32-6.95-8.84-8.27-14.33a13.6,13.6,0,0,1,.07-6.44"/><path class="cls-7" d="M410.53,605.75s9.67-8.74,19.34-5.23"/><path class="cls-8" d="M427,607.78c0,3.72-2,2.15-4.4,2.15s-4.41,1.57-4.41-2.15,2-6.73,4.41-6.73S427,604.06,427,607.78Z"/><path class="cls-7" d="M471.84,605.75s-10-8.6-19.92-6"/><path class="cls-8" d="M454.69,607.78c0,3.72,2,2.48,4.4,2.48s4.41,1.24,4.41-2.48-2-6.73-4.41-6.73-4.4,3-4.4,6.73"/><circle class="cls-1" cx="441.42" cy="620.56" r="0.63"/><path class="cls-9" d="M418.21,589.88a10.22,10.22,0,0,1,8.81,0"/><path class="cls-9" d="M464.53,589.88a10.22,10.22,0,0,0-8.81,0"/><path class="cls-10" d="M434.41,627.21s6.88,7.53,15,0"/><polygon class="cls-15" points="588.87 635.84 590.52 657.52 588.87 667.95 610.92 666.15 613.07 653.84 613.69 635.84 588.87 635.84"/><path class="cls-1" d="M589.86,643.55s10.95,8.86,15.73,7.55,7.47-7.55,7.47-7.55"/><path class="cls-16" d="M638.69,605.41c0,26.05-11.68,38.84-37.72,38.84s-40.25-16.78-38.05-42.73,12-51.6,38.05-51.6S638.69,579.36,638.69,605.41Z"/><path class="cls-6" d="M589.83,643.18s1.68,15.43-13.22,17.89"/><path class="cls-6" d="M630.13,665.42c-14-2.32-14.75-9.45-16.07-14.94a19,19,0,0,1,.07-7.43"/><path class="cls-7" d="M569.53,606.41s9.67-8.74,19.34-5.24"/><path class="cls-7" d="M630.84,606.41s-10-8.6-19.92-6"/><circle class="cls-1" cx="600.42" cy="621.22" r="0.63"/><path class="cls-9" d="M577.21,590.53a10.22,10.22,0,0,1,8.81,0"/><path class="cls-9" d="M623.53,590.53a10.22,10.22,0,0,0-8.81,0"/><path class="cls-10" d="M593.41,627.86s6.88,7.53,15,0"/><ellipse class="cls-8" cx="583.97" cy="608.11" rx="3.6" ry="2.35"/><ellipse class="cls-8" cx="616.01" cy="608.11" rx="3.6" ry="2.35"/><path class="cls-8" d="M620.91,565.54a7.3,7.3,0,0,0-10.66,3.61c-3,8.61-8.13,23-9.32,23.59s-15.7-1.06-25.25-2.21a9.12,9.12,0,0,0-10.14,7c-2,10-4.24,26.39,1.67,32,8.7,8.3-2.39,14.51,1.44,22.88a6.79,6.79,0,0,1,.56,4.09c-1.08,6.24-10.8,5.6-11.22-.72-.47-7.31-1.41-15.94-3.25-18.84-3.39-5.38-22.39-83.65,30-96.39s64,25.69,66.74,36-11.24,41.19-1,49.19-12.33,36.76-15.94,37.2-5.45.24,0-11.48c4.81-10.35-6.18-29.62-.89-52a32.42,32.42,0,0,0-6.09-27.92A26.32,26.32,0,0,0,620.91,565.54Z"/><path class="cls-3" d="M135.56,649.33h-23.2c-3.58,12-14.79,11.3-14.79,11.3l-28.15,13.3H173.2l-24.72-13S139.61,661.47,135.56,649.33Z"/><path class="cls-13" d="M160.17,673.8c11.36-25.72,14.85-73.47,12.23-96.75A46.77,46.77,0,0,0,150,541.8c-27.3-16-55.7-2.86-67.9,18.49-15.62,27.34,2.06,113.49,2.06,113.49l22.19,0s-.12,1-2.9-7.08c-1.9-5.55-5.06-15.38-10.28-32.75-12.32-41,10.72-68.06,10.72-68.06s-.85,13.57,4.09,32h29.51s5.37-10.2,5.44-32.57c0-.18,25.74,35,0,108.57Z"/><path class="cls-17" d="M453.86,649.09h-23.2c-3.58,12-14.79,11.3-14.79,11.3L387.72,673.7H491.5l-24.72-13S457.91,661.24,453.86,649.09Z"/><path class="cls-18" d="M613.05,649.09H589.84c-3.57,12-14.79,11.3-14.79,11.3L546.91,673.7H650.68l-24.72-13S617.09,661.24,613.05,649.09Z"/><path class="cls-19" d="M434.72,562.2s-15.59-7.5-1.67-23.74,10.83-14.67,10.83-14.67a15.81,15.81,0,0,0-.17,5.22,4.31,4.31,0,0,0,1.88,3.16c3.14,1.75,0-12.57,0-12.57s13,7.16,12,16.06-5,26.54,0,26.54Z"/><path class="cls-13" d="M449.41,557.42a7.52,7.52,0,0,0,6.31,4.85c5.06.67,21.51,6.87,18.68,21s7.11,26,7.11,26,10.95-15.77,8-28.31S486,550,472.91,545.82s-19.37-13.08-23.5-10.79"/><path class="cls-13" d="M435.51,559.66a7.54,7.54,0,0,1-6.32,4.86c-5.05.67-21.5,6.86-18.67,21s-7.12,26-7.12,26-10.95-15.78-8-28.32,4-31.23,17.09-35.41,18.86-13.22,23-10.92"/><path class="cls-13" d="M429.87,558.21s-.37,7.83,9.74,7.83,20.63-2.18,22.72-7.83"/><path class="cls-1" d="M1203.39,603.35s6.1,24.45-2.61,38.7,4.69,29.9,4.69,29.9l82.39,1.18s15.88-9.17,12.52-24.35-14-21-13.26-31.8S1203.39,603.35,1203.39,603.35Z"/><polygon class="cls-2" points="760.78 637.78 744.14 660.76 748.9 675.16 800.55 675.16 807.49 654.82 796.54 639.66 760.78 637.78"/><path class="cls-3" d="M761.54,650h23.21s3.09,14.79,18,11.1-6.32,13.5-6.32,13.5H750.61l-3.85-12.3A16.56,16.56,0,0,0,761.54,650Z"/><path class="cls-4" d="M736,629.62l5.39,28.82,9.12,2.7s13.44-3.55,11.06-17C761.54,644.1,739.82,625.3,736,629.62Z"/><path class="cls-4" d="M808.91,625.36l-24.16,13.17.41,12.08s7.36,16.14,18.71,10.16C803.87,660.77,814,629.26,808.91,625.36Z"/><path class="cls-1" d="M761.54,644.1s11,8.87,15.74,7.56,7.47-7.56,7.47-7.56"/><path class="cls-5" d="M818,591.55c0,26-19.27,54.25-45.32,54.25s-43.77-26.54-43.77-52.58,17.73-41.75,43.77-41.75S818,565.5,818,591.55Z"/><path class="cls-6" d="M761.52,643.73s1.68,15.44-13.22,17.89"/><path class="cls-6" d="M784.81,643.6S783.13,659,798,661.49"/><path class="cls-7" d="M744.14,601.75a16.82,16.82,0,0,1,16.26,2.18"/><ellipse class="cls-8" cx="753.3" cy="608.99" rx="4.41" ry="6.73"/><path class="cls-7" d="M799,601.75a16.82,16.82,0,0,0-16.26,2.18"/><path class="cls-8" d="M785.37,609c0,3.72,2,6.73,4.41,6.73s4.41-3,4.41-6.73-2-6.73-4.41-6.73-4.41,3-4.41,6.73"/><circle class="cls-1" cx="772.11" cy="621.77" r="0.63"/><path class="cls-9" d="M748.9,591.08a10.22,10.22,0,0,1,8.81,0"/><path class="cls-2" d="M763.1,603.77a97.69,97.69,0,0,1-.72-18.08l2.17,18.08Z"/><path class="cls-2" d="M771.3,602.26a91.07,91.07,0,0,1-.77-18.09l2.32,18.09Z"/><path class="cls-2" d="M781.37,603.77s2-9.66,1.06-18.08l-3.17,18.08Z"/><path class="cls-9" d="M795.22,591.08a10.22,10.22,0,0,0-8.81,0"/><path class="cls-10" d="M766.1,628.42s5.88,7.52,14,0"/><polygon class="cls-11" points="921.92 636.29 923.57 657.97 921.92 668.4 943.98 666.6 946.13 654.28 946.74 636.29 921.92 636.29"/><path class="cls-1" d="M922.91,644s11,8.86,15.74,7.55,7.47-7.55,7.47-7.55"/><path class="cls-12" d="M979.34,591.44c0,26-19.27,54.25-45.32,54.25s-43.77-26.53-43.77-52.58S908,551.37,934,551.37,979.34,565.39,979.34,591.44Z"/><path class="cls-6" d="M922.88,643.63s1.69,15.43-13.21,17.89"/><path class="cls-6" d="M954.39,664.26c-14-2.32-6.95-8.84-8.27-14.33a13.65,13.65,0,0,1,.06-6.43"/><path class="cls-7" d="M905.66,603.81a16.82,16.82,0,0,1,16.26-2.19"/><ellipse class="cls-8" cx="914.67" cy="607.44" rx="4.41" ry="5.29"/><path class="cls-7" d="M960,604.52a16.82,16.82,0,0,0-16-3.64"/><path class="cls-8" d="M946.74,607.44c0,2.92,2,5.28,4.41,5.28s4.41-2.36,4.41-5.28-2-5.29-4.41-5.29-4.41,2.37-4.41,5.29"/><circle class="cls-1" cx="933.48" cy="621.67" r="0.63"/><path class="cls-9" d="M910.27,591a10.22,10.22,0,0,1,8.81,0"/><path class="cls-11" d="M924.47,603.67a97.76,97.76,0,0,1-.72-18.09l2.17,18.09Z"/><path class="cls-11" d="M932.67,602.15a91,91,0,0,1-.77-18.08l2.32,18.08Z"/><path class="cls-11" d="M942.74,603.67s2-9.66,1.06-18.09l-3.17,18.09Z"/><path class="cls-9" d="M956.59,591a10.22,10.22,0,0,0-8.81,0"/><path class="cls-10" d="M926.47,628.31s6.88,7.53,15,0"/><path class="cls-13" d="M922.91,562.33s-1,23.93,17.72,31l-3.23-15.52a33.9,33.9,0,0,0,18.16,15.52L952,577.85s6.72,20.66,14.81,26v-9.18s4.18,17.23,1.62,21.25c0,0,8.66,5.76,15.94-17.09a47.88,47.88,0,0,0,2.11-17.09c-1.42-26.83-24-48-50.87-48.05a7.48,7.48,0,0,1-2.11,0c-11.56-3.32-43.62,17.15-48.34,33.32s-2.74,46.49,15.45,49.52C900.59,616.53,896.09,578.71,922.91,562.33Z"/><path class="cls-14" d="M946.12,649.93H922.91c-3.57,12-14.78,11.3-14.78,11.3L880,674.53H983.76l-24.72-13S950.17,662.07,946.12,649.93Z"/><polygon class="cls-15" points="1079.04 636.03 1080.69 657.71 1079.04 668.13 1101.1 666.33 1103.24 654.02 1103.86 636.03 1079.04 636.03"/><path class="cls-1" d="M1080,643.73s11,8.87,15.73,7.56,7.47-7.56,7.47-7.56"/><path class="cls-16" d="M1133.45,591.18c0,26-16.27,54.25-42.31,54.25s-40.78-26.54-40.78-52.58,14.73-41.75,40.78-41.75S1133.45,565.13,1133.45,591.18Z"/><path class="cls-6" d="M1080,643.36s1.68,15.44-13.22,17.89"/><path class="cls-6" d="M1111.5,664c-14-2.32-7-8.85-8.27-14.33a13.76,13.76,0,0,1,.07-6.44"/><path class="cls-7" d="M1059.7,606.59s9.67-8.74,19.34-5.23"/><path class="cls-8" d="M1076.19,608.62c0,3.72-2,2.15-4.4,2.15s-4.41,1.57-4.41-2.15,2-6.73,4.41-6.73S1076.19,604.9,1076.19,608.62Z"/><path class="cls-7" d="M1121,606.59s-10-8.6-19.91-6"/><path class="cls-8" d="M1103.86,608.62c0,3.72,2,2.48,4.4,2.48s4.41,1.24,4.41-2.48-2-6.73-4.41-6.73-4.4,3-4.4,6.73"/><circle class="cls-1" cx="1090.59" cy="621.4" r="0.63"/><path class="cls-9" d="M1067.38,590.71a10.23,10.23,0,0,1,8.81,0"/><path class="cls-9" d="M1113.71,590.71a10.25,10.25,0,0,0-8.82,0"/><path class="cls-10" d="M1083.58,628.05s6.89,7.52,15,0"/><polygon class="cls-15" points="1238.04 636.68 1239.69 658.36 1238.04 668.78 1260.1 666.99 1262.24 654.67 1262.86 636.68 1238.04 636.68"/><path class="cls-1" d="M1239,644.39s11,8.86,15.73,7.55,7.47-7.55,7.47-7.55"/><path class="cls-16" d="M1287.86,606.25c0,26-11.68,38.83-37.72,38.83s-40.25-16.77-38-42.73,12-51.6,38-51.6S1287.86,580.2,1287.86,606.25Z"/><path class="cls-6" d="M1239,644s1.68,15.44-13.22,17.9"/><path class="cls-6" d="M1279.3,666.25c-14-2.31-14.75-9.44-16.07-14.93a19.24,19.24,0,0,1,.07-7.44"/><path class="cls-7" d="M1218.7,607.25s9.67-8.75,19.34-5.24"/><path class="cls-7" d="M1280,607.25s-10-8.6-19.91-6"/><circle class="cls-1" cx="1249.59" cy="622.05" r="0.63"/><path class="cls-9" d="M1226.38,591.37a10.23,10.23,0,0,1,8.81,0"/><path class="cls-9" d="M1272.71,591.37a10.25,10.25,0,0,0-8.82,0"/><path class="cls-10" d="M1242.58,628.7s6.89,7.53,15,0"/><ellipse class="cls-8" cx="1233.14" cy="608.94" rx="3.6" ry="2.35"/><ellipse class="cls-8" cx="1265.18" cy="608.94" rx="3.6" ry="2.35"/><path class="cls-8" d="M1270.08,566.38a7.3,7.3,0,0,0-10.66,3.61c-3,8.6-8.13,23-9.32,23.59s-15.7-1.07-25.25-2.21a9.12,9.12,0,0,0-10.14,7c-2,10-4.24,26.39,1.67,32,8.7,8.31-2.39,14.51,1.44,22.88a6.81,6.81,0,0,1,.56,4.09c-1.08,6.25-10.8,5.6-11.21-.71-.48-7.32-1.42-15.94-3.26-18.84-3.39-5.38-22.39-83.65,30-96.39s64,25.68,66.74,36-11.23,41.19-1,49.19-12.33,36.76-15.94,37.19-5.45.24,0-11.47c4.81-10.36-6.18-29.62-.88-52a32.44,32.44,0,0,0-6.09-27.91A26.16,26.16,0,0,0,1270.08,566.38Z"/><path class="cls-3" d="M784.73,650.17h-23.2c-3.58,12-14.79,11.3-14.79,11.3l-28.14,13.3H822.37l-24.72-13S788.78,662.31,784.73,650.17Z"/><path class="cls-13" d="M809.34,674.64c11.37-25.72,14.85-73.47,12.23-96.75a46.73,46.73,0,0,0-22.43-35.25c-27.3-16-55.69-2.86-67.9,18.49-15.61,27.33,2.06,113.49,2.06,113.49l22.19,0s-.11,1-2.89-7.08c-1.91-5.55-5.06-15.38-10.29-32.75C730,593.76,753,566.68,753,566.68s-.85,13.56,4.09,32h29.51s5.37-10.21,5.44-32.58c0-.17,25.74,35.05,0,108.58Z"/><path class="cls-17" d="M1103,649.93h-23.2c-3.58,12-14.79,11.3-14.79,11.3l-28.14,13.3h103.77l-24.72-13S1107.08,662.07,1103,649.93Z"/><path class="cls-18" d="M1262.22,649.93H1239c-3.57,12-14.78,11.3-14.78,11.3l-28.15,13.3h103.78l-24.72-13S1266.26,662.07,1262.22,649.93Z"/><path class="cls-19" d="M1083.89,563s-15.59-7.51-1.67-23.75,10.83-14.66,10.83-14.66a15.77,15.77,0,0,0-.17,5.21,4.31,4.31,0,0,0,1.88,3.17c3.14,1.74,0-12.57,0-12.57s13,7.15,12,16.06-5,26.54,0,26.54Z"/><path class="cls-13" d="M1098.58,558.25a7.54,7.54,0,0,0,6.31,4.86c5.06.67,21.51,6.86,18.68,21s7.11,26,7.11,26,11-15.78,8-28.32-3.51-30.87-16.58-35.05-19.38-13.08-23.51-10.79"/><path class="cls-13" d="M1084.68,560.5a7.52,7.52,0,0,1-6.32,4.85c-5,.68-21.5,6.87-18.67,21s-7.12,26-7.12,26-11-15.78-8-28.32,4-31.24,17.09-35.42,18.87-13.21,23-10.92"/><path class="cls-13" d="M1079,559.05s-.37,7.83,9.74,7.83,20.63-2.18,22.72-7.83"/></g></svg>