<?xml version="1.0" encoding="utf-8"?>
<!-- Generator: Adobe Illustrator 23.0.2, SVG Export Plug-In . SVG Version: 6.00 Build 0)  -->
<svg version="1.1" xmlns="http://www.w3.org/2000/svg" xmlns:xlink="http://www.w3.org/1999/xlink" x="0px" y="0px"
	 viewBox="0 0 63.91 66.34" style="enable-background:new 0 0 63.91 66.34;" xml:space="preserve">
<style type="text/css">
	.st0{fill:#F499C1;}
	.st1{fill:#EDAD3A;stroke:#2E3192;stroke-miterlimit:10;}
	.st2{fill:#532E7C;}
	.st3{fill:#2E3192;}
	.st4{fill:#F499C1;stroke:#2E3192;stroke-miterlimit:10;}
	.st5{fill:none;stroke:#2E3192;stroke-miterlimit:10;}
	.st6{fill:none;stroke:#2E3192;stroke-width:2;stroke-linecap:round;stroke-miterlimit:10;}
	.st7{fill:#2E3192;stroke:#2E3192;stroke-width:2;stroke-linecap:round;stroke-miterlimit:10;}
	.st8{fill:none;stroke:#2E3192;stroke-width:0.75;stroke-linecap:round;stroke-miterlimit:10;}
	.st9{fill:none;stroke:#2E3192;stroke-linecap:round;stroke-miterlimit:10;}
	.st10{fill:none;stroke:#2E3192;stroke-linecap:round;stroke-linejoin:round;stroke-miterlimit:10;}
	.st11{fill:#2E3192;stroke:#2E3192;stroke-miterlimit:10;}
	.st12{fill:#EDAD3A;stroke:#2E3192;stroke-width:2;stroke-linecap:round;stroke-miterlimit:10;}
</style>
<g id="Layer_5">
	<polygon class="st0" points="-572.09,237.84 -586.65,257.94 -582.49,270.54 -537.3,270.54 -531.24,252.75 -540.81,239.48 	"/>
</g>
<g id="Layer_7">
	<path class="st1" d="M-571.43,248.56h20.3c0,0,2.7,12.95,15.71,9.71c13.01-3.24-5.53,11.81-5.53,11.81h-40.04l-3.37-10.76
		C-584.36,259.32-574.55,259.08-571.43,248.56z"/>
</g>
<g id="Layer_4">
	<path class="st2" d="M-593.8,230.7l4.72,25.21l7.98,2.36c0,0,11.76-3.1,9.68-14.9C-571.43,243.37-590.43,226.92-593.8,230.7z"/>
	<path class="st2" d="M-529.99,226.98l-21.14,11.52l0.36,10.57c0,0,6.43,14.12,16.36,8.89
		C-534.4,257.95-525.56,230.39-529.99,226.98z"/>
	<path class="st3" d="M-571.43,243.37c0,0,9.58,7.75,13.76,6.61c4.18-1.15,6.54-6.61,6.54-6.61"/>
</g>
<g id="Layer_1">
	<path class="st4" d="M-522.07,197.39c0,22.79-16.85,47.46-39.64,47.46c-22.79,0-38.29-23.21-38.29-46s15.51-36.52,38.29-36.52
		C-538.92,162.34-522.07,174.61-522.07,197.39z"/>
</g>
<g id="Layer_3">
	<path class="st5" d="M-571.45,243.04c0,0,1.47,13.5-11.56,15.65"/>
	<path class="st5" d="M-551.07,242.93c0,0-1.47,13.5,11.56,15.65"/>
	<g>
		<path class="st6" d="M-586.65,206.32c0,0,6.88-3.28,14.22,1.91"/>
		<ellipse class="st7" cx="-578.63" cy="212.65" rx="3.85" ry="5.89"/>
	</g>
	<g>
		<path class="st6" d="M-360.74,7.42c0,0,6.88-3.28,14.22,1.91"/>
		<path class="st7" d="M-348.86,13.75c0,3.25-1.73,5.89-3.85,5.89c-2.13,0-3.85-2.64-3.85-5.89s1.73-5.89,3.85-5.89
			C-350.59,7.86-348.86,10.5-348.86,13.75"/>
	</g>
	<g>
		<path class="st6" d="M-538.71,206.32c0,0-6.88-3.28-14.22,1.91"/>
		<path class="st7" d="M-550.58,212.65c0,3.25,1.73,5.89,3.85,5.89c2.13,0,3.85-2.64,3.85-5.89s-1.73-5.89-3.85-5.89
			C-548.85,206.76-550.58,209.4-550.58,212.65"/>
	</g>
	<circle class="st3" cx="-562.18" cy="223.83" r="0.55"/>
	<path class="st8" d="M-582.49,196.99c0,0,3.74-1.99,7.71,0"/>
	<path class="st9" d="M-568.04,230.13c0,0,6.02,6.58,13.12,0"/>
	<path class="st10" d="M-426.34,255.26c-7.1,6.58-13.12,0-13.12,0H-426.34z"/>
</g>
<g id="Layer_2">
	<path class="st11" d="M-529.62,270.08c9.95-22.5,12.99-64.27,10.7-84.64c-1.44-12.75-8.55-24.35-19.62-30.84
		c-23.88-13.99-48.72-2.5-59.39,16.18c-13.66,23.91,1.8,99.28,1.8,99.28l19.41-0.04c0,0-0.1,0.89-2.54-6.19
		c-1.67-4.85-4.43-13.46-8.99-28.65c-10.78-35.85,9.37-59.53,9.37-59.53s-0.74,11.87,3.58,27.96h25.81c0,0,4.7-8.93,4.76-28.49
		c0.03-0.15,22.52,30.65,0,94.98H-529.62z"/>
	<path class="st0" d="M-570.06,208.09c0,0-1.2-8.45-0.63-15.82l1.9,15.82H-570.06z"/>
	<path class="st0" d="M-562.89,206.76c0,0-1.28-8.45-0.68-15.82l2.03,15.82H-562.89z"/>
	<path class="st0" d="M-554.08,208.09c0,0,1.76-8.45,0.92-15.82l-2.77,15.82H-554.08z"/>
	<polygon class="st0" points="-119.43,163.12 -133.99,183.22 -129.83,195.81 -84.65,195.81 -78.58,178.02 -88.15,164.76 	"/>
	<path class="st1" d="M-118.77,173.83h20.3c0,0,2.7,12.95,15.71,9.71s-5.53,11.81-5.53,11.81h-40.04l-3.37-10.76
		C-131.7,184.59-121.89,184.35-118.77,173.83z"/>
	<path class="st2" d="M-141.14,155.97l4.72,25.21l7.98,2.36c0,0,11.76-3.1,9.68-14.9C-118.77,168.64-137.77,152.2-141.14,155.97z"/>
	<path class="st2" d="M-77.33,152.25l-21.14,11.52l0.36,10.57c0,0,6.43,14.12,16.36,8.89C-81.74,183.22-72.9,155.66-77.33,152.25z"
		/>
	<path class="st3" d="M-118.77,168.64c0,0,9.58,7.75,13.76,6.61c4.18-1.15,6.54-6.61,6.54-6.61"/>
	<path class="st4" d="M-69.41,122.67c0,22.79-16.85,47.46-39.64,47.46s-38.29-23.21-38.29-46s15.51-36.52,38.29-36.52
		S-69.41,99.88-69.41,122.67z"/>
	<path class="st5" d="M-118.79,168.32c0,0,1.47,13.5-11.56,15.65"/>
	<path class="st5" d="M-98.41,168.2c0,0-1.47,13.5,11.56,15.65"/>
	<g>
		<path class="st6" d="M-133.99,131.6c0,0,6.88-3.28,14.22,1.91"/>
		<ellipse class="st7" cx="-125.98" cy="137.93" rx="3.85" ry="5.89"/>
	</g>
	<g>
		<path class="st6" d="M-86.05,131.6c0,0-6.88-3.28-14.22,1.91"/>
		<path class="st7" d="M-97.92,137.93c0,3.25,1.73,5.89,3.85,5.89s3.85-2.64,3.85-5.89s-1.73-5.89-3.85-5.89
			S-97.92,134.68-97.92,137.93"/>
	</g>
	<circle class="st3" cx="-109.52" cy="149.11" r="0.55"/>
	<path class="st8" d="M-129.83,122.26c0,0,3.74-1.99,7.71,0"/>
	<path class="st9" d="M-115.39,155.41c0,0,6.02,6.58,13.12,0"/>
	<path class="st11" d="M-76.96,195.36c9.95-22.5,12.99-64.27,10.7-84.64c-1.44-12.75-8.55-24.35-19.62-30.84
		c-23.88-13.99-48.72-2.5-59.39,16.18c-13.66,23.91,1.8,99.28,1.8,99.28l19.41-0.04c0,0-0.1,0.89-2.54-6.19
		c-1.67-4.85-4.43-13.46-8.99-28.65c-10.78-35.85,9.37-59.53,9.37-59.53s-0.74,11.87,3.58,27.96h25.81c0,0,4.7-8.93,4.76-28.49
		c0.03-0.15,22.52,30.65,0,94.98H-76.96z"/>
	<path class="st0" d="M-117.41,133.36c0,0-1.2-8.45-0.63-15.82l1.9,15.82H-117.41z"/>
	<path class="st0" d="M-110.23,132.04c0,0-1.28-8.45-0.68-15.82l2.03,15.82H-110.23z"/>
	<path class="st0" d="M-101.42,133.36c0,0,1.76-8.45,0.92-15.82l-2.77,15.82H-101.42z"/>
</g>
<g id="Layer_6">
	
		<text transform="matrix(1 0 0 1 -356.5736 -23.9242)" class="st3" style="font-family:'KozGoPr6N-Regular-90ms-RKSJ-H'; font-size:12px;">道子</text>
	<path class="st6" d="M-503.51,176.32c1.67-1.22,3.98-3.28,6.73-6.71c0.41-0.51,0.63-1.15,0.63-1.8v-18.4c0-1.6,1.3-2.9,2.9-2.9
		h74.74c1.6,0,2.9,1.3,2.9,2.9v38.81c0,1.6-1.3,2.9-2.9,2.9h-75.1c-1.6,0-2.9-1.3-2.9-2.9l0,0v-8.34c0-1.44-1.39-0.08-3.91,0.79
		c-1.05,0.36-4.78,0.1-6-0.28C-508.69,179.68-505.43,177.72-503.51,176.32z"/>
	<circle class="st12" cx="-651.09" cy="237.84" r="18.88"/>
	<circle class="st12" cx="-664.16" cy="177.23" r="18.61"/>
	<circle class="st12" cx="33.12" cy="34.53" r="18.67"/>
</g>
</svg>
