<svg xmlns="http://www.w3.org/2000/svg" viewBox="0 0 121.35 149.96"><defs><style>.cls-1,.cls-5{fill:#f499c1;}.cls-2{fill:#edad3a;}.cls-10,.cls-11,.cls-2,.cls-5,.cls-6,.cls-7,.cls-8,.cls-9{stroke:#2e3192;stroke-miterlimit:10;}.cls-3{fill:#532e7c;}.cls-11,.cls-4,.cls-8{fill:#2e3192;}.cls-10,.cls-6,.cls-7,.cls-9{fill:none;}.cls-10,.cls-7,.cls-8,.cls-9{stroke-linecap:round;}.cls-7,.cls-8{stroke-width:2px;}.cls-9{stroke-width:0.75px;}</style></defs><title>girl</title><g id="Layer_2" data-name="Layer 2"><polygon class="cls-1" points="49.47 100.42 34.91 120.52 39.07 133.12 84.25 133.12 90.32 115.33 80.75 102.06 49.47 100.42"/><path class="cls-2" d="M50.13,111.14h20.3s2.7,12.94,15.71,9.71-5.53,11.81-5.53,11.81h-40L37.2,121.9A14.47,14.47,0,0,0,50.13,111.14Z"/><path class="cls-3" d="M27.76,93.27l4.72,25.22,8,2.36s11.76-3.11,9.68-14.9C50.13,106,31.13,89.5,27.76,93.27Z"/><path class="cls-3" d="M91.57,89.55,70.43,101.07l.36,10.57s6.44,14.12,16.37,8.89C87.16,120.53,96,93,91.57,89.55Z"/><path class="cls-4" d="M50.13,106s9.58,7.75,13.76,6.6,6.54-6.6,6.54-6.6"/><path class="cls-5" d="M99.49,60c0,22.79-16.86,47.46-39.64,47.46s-38.29-23.21-38.29-46,15.5-36.52,38.29-36.52S99.49,37.18,99.49,60Z"/><path class="cls-6" d="M50.11,105.62s1.47,13.5-11.56,15.65"/><path class="cls-6" d="M70.49,105.51S69,119,82.05,121.16"/><path class="cls-7" d="M34.9,68.9a14.72,14.72,0,0,1,14.23,1.91"/><ellipse class="cls-8" cx="42.92" cy="75.23" rx="3.85" ry="5.89"/><path class="cls-7" d="M82.85,68.9a14.72,14.72,0,0,0-14.23,1.91"/><path class="cls-8" d="M71,75.23c0,3.25,1.72,5.89,3.85,5.89s3.86-2.64,3.86-5.89S77,69.34,74.83,69.34,71,72,71,75.23"/><circle class="cls-4" cx="59.37" cy="86.41" r="0.55"/><path class="cls-9" d="M39.07,59.57a8.93,8.93,0,0,1,7.71,0"/><path class="cls-10" d="M53.51,92.71s6,6.58,13.12,0"/><path class="cls-11" d="M91.94,132.66c9.94-22.5,13-64.27,10.7-84.64A40.91,40.91,0,0,0,83,17.19c-23.88-14-48.72-2.51-59.4,16.17-13.66,23.91,1.8,99.28,1.8,99.28l19.42,0s-.11.89-2.54-6.19c-1.66-4.86-4.42-13.46-9-28.66C22.53,61.9,42.68,38.22,42.68,38.22s-.74,11.86,3.58,28H72.07s4.71-8.92,4.77-28.49c0-.15,22.51,30.65,0,95Z"/><path class="cls-1" d="M51.49,70.67a85.34,85.34,0,0,1-.63-15.82l1.9,15.82Z"/><path class="cls-1" d="M58.67,69.34A79.58,79.58,0,0,1,58,53.52l2,15.82Z"/><path class="cls-1" d="M67.48,70.67a59,59,0,0,0,.92-15.82L65.63,70.67Z"/></g></svg>